<svg version="1.1" preserveAspectRatio="none" xmlns="http://www.w3.org/2000/svg" width="500" height="500" viewBox="0 0 500 500"><rect width="100%" height="100%" fill="#F7F0E8" fill-opacity="1"/><svg viewBox="55.4794 357.4 575.0543 148" width="333" height="85.70321098372797" x="83.5px" y="207.1484px" xmlns="http://www.w3.org/2000/svg" xmlns:xlink="http://www.w3.org/1999/xlink" preserveAspectRatio="none"><defs></defs><style>.companyName {fill:#883F39;fill-opacity:1;}.icon1 {fill:#F3C1BC;fill-opacity:1;}.icon2 {fill:#C4AFAD;fill-opacity:1;}.icon3 {fill:#B28A87;fill-opacity:1;}.icon3-str {stroke:#B28A87;stroke-opacity:1;}.text {fill:#883F39;fill-opacity:1;}</style><g opacity="1" transform="rotate(0 55.4794 357.4)">
<svg width="177.8068" height="148" x="55.4794" y="357.4" version="1.1" preserveAspectRatio="none" viewBox="20 33.499996185302734 160.02601623535156 133.1999053955078">
  <g transform="matrix(1 0 0 1 0 0)"><g><path d="M94.5 43.4L90 76.1l-4.5 32.7-28.2-37.6-28.1-37.7 32.6 5 32.7 4.9z" data-color="1" class="icon1"></path><path d="M94.4 43.1l-32.5-4.7-32.5-4.7-4.7 32.5L20 98.5l37.2-27.7 37.2-27.7z" data-color="2" class="icon2"></path><path d="M179.6 164.7l-.1.4.5-.4c.1-.1-.1-.2-.4 0z" data-color="2" class="icon2"></path><path d="M177.4 165.3c-.4.3-.8.6-.5.8.4-.4.5-.3.9-.8.3-.2.7-.1.6 0 .1-.1.6-.2.7-.4-.6 0-1.1.2-1.7.6-.1 0 0-.1 0-.2z" data-color="2" class="icon2"></path><path d="M146.7 141.1c-.1.1-.2.3-.1.2.1-.1.1-.2.1-.2z" data-color="2" class="icon2"></path><path d="M144 144.3l.1-.2c0 .1-.1.2-.1.2z" data-color="2" class="icon2"></path><path d="M165.3 139.3c-.1 0 0 .3.1.6 0-.1 0-.3-.1-.6z" data-color="2" class="icon2"></path><path d="M163.7 149.9l-.1.2c0 .1 0 .1.1.2v-.4z" data-color="2" class="icon2"></path><path d="M170.8 165.2h.2-.2z" data-color="2" class="icon2"></path><path d="M139.5 149.5s.1 0 0 0c.2-.1.1-.1 0 0z" data-color="2" class="icon2"></path><path d="M102.6 136.3c.8-.1-.9.8.2.5-.2 0 .7-.8-.2-.5z" data-color="2" class="icon2"></path><path d="M172.1 166.4h-.3.3z" data-color="2" class="icon2"></path><path d="M126.8 152.2s0-.1-.1-.2c0 0 0 .1.1.2z" data-color="2" class="icon2"></path><path d="M86.6 119.8c.2 0 .3 0 .4.1-.2-.1.6-.6-.4-.1z" data-color="2" class="icon2"></path><path d="M172.4 166.3c0 .1-.1.1-.2.1l.2-.1c0 .1 0 .1 0 0z" data-color="2" class="icon2"></path><path d="M120.7 146.9c.1.3.2.7.3 1.1l-.3-1.1z" data-color="2" class="icon2"></path><path d="M139.9 149.2l.1-.1c0 .1 0 .1-.1.1z" data-color="2" class="icon2"></path><path d="M64 144.4c-.1 0-.2 0-.3-.1l.3.1z" data-color="2" class="icon2"></path><path d="M174.1 166.5c.8-.1 2-.3 2.2-.6h-.5c.3-.1.2.2 0 .3-.6.3-1 0-1-.1.2 0 .3-.1.5-.1-.5-.4-1.9.2-2.9 0 .2-.1.3-.2.4-.3-.3.1-.7.1-1 .2-.2-.1-.3-.4.2-.3-.6-.3-.6 0-1.1-.3-.1 0 0-.1 0-.1-.2 0-.4 0-.7-.1.1 0 0-.3.3-.1-1-.5-1.9-.4-2.1-.9h.1c-1.5-.7-.3.2-1.5-.2-.1-.3-.2-.7-.2-1l-.3.1c-.1-.1-.4-.4-.2-.4-.6-.3 0 .2-.4 0-.4-.7-1.6-1.7-1.3-2.1-.3-.1.3.7-.3.1.3-.4-.6-.8-.7-1.6.3.1.5.8.4 0-.6-.2-.5-1.3-.7-1.9 0 0 .1 0 .2-.1 0-.2-.3-.2-.4-.2l.3.3c-.3.1-.5-1.3-.6-2.3.1 0 .1-.5.1-1.1.1-.6.2-1.2.4-1.8-.3-.2 0-1.2.2-1.9.2.1.2.2.2.6l.2-.7c0-.2 0-.4.1-.8l.2.2c.3-.9.4-1.9.9-2.9-.2-.1-.9.7-.7-.6.1 0 .4 0 .3.3 0-.1 0-.4.1-.6v.6c.3-.5-.1-.3.1-.7.2.1.2-.3.3-.2 0 .1-.2.3-.2.5.2-.5.5-1 .6-1.2-.1 0-.2-.1-.2-.4.2-.9.3-.3.5-.8-.1-.3.1-.9-.2-.9 0-.3.1-.3.2-.4 0-.3-.1-.9-.2-1.3-.1-.5-.2-.8-.3-.5v.2-.1c-.3-.8-.6-1.6-1-2.3-.4-.8-1-1.4-1.8-1.8l.1-.1c-.9-.5-2-.9-2.7-.9-.3-.1-.6-.3-.5-.4-.8 0-.8 0-1.9-.1.8-.2-.3-.2.8-.1-1-.1-1.2-.2-2.3.1.3-.3-.8-.2-1.2 0h.7c-.5.1-1 .2-1.4.4 0-.1.1-.2.2-.4-1 .1-1.9.7-2.5 1.3-.7.6-1.2 1.1-2 1.3-.3.5.9-.6.7-.1-.7.5-1.7.9-1.9 1.1-1 .8-.5 1.1-1.4 2 .2-.1.5 0 0 .8-.6.7-1 .6-.7.1.1-.2.2-.2.2-.2.2-.2.4-.6 0-.4v.2c-.4.3-1.1 1.3-1.1.9-.3.6 0 .3.3 0-.8.8-1.1 1.4-1.8 2.3.2-.1.4-.2.2 0-1.1 1.3-.3.7-.9 1.7-.5.4-.2-.4-.7.6-.5.5-.3 0-.2-.3-.4 1-1.3 1.5-1.7 1.9l.3-.5c-.2.3-.3.5-.5.7l.4-.1c-.2.2-.4.4-.5.4-.1.3.4 0 .2.7-.4.3-.8 1-1.1.9.9-.8-.1-.2.3-.8-.1.2-.3.3-.4.4-.1 0 0-.1 0-.1-1.1.7-.2.6-1.1 1.5 0-.2-.4 0-.6.1.4-.3.4 0 .1.4-.7.4-.7.6-1 .8l.4-.2c-.1.2-.4.5-.9.8-.1-.1.4-.3.2-.3-.4.6-1.4.5-2.1.9-.4 0-.1-.3-.5-.2-.9.5-1 .1-1.9.3.3.2.4.1-.3.4.5-.1 1.1-.1 1.6-.4-.3.2-.7.3-1 .5.5 0 1-.3 1.3-.3-.5.3-.4.2-.1.3h-.5c-.2 0-.4.1-.5.1-.4.1-.7.2-1.1.1v-.5c-.3-.1-.5-.1-.8-.1-.3 0-.5-.1-.8-.1h-.4l-.4-.1c-.3-.1-.7-.2-1-.4.1.1.3.2.4.3-.3.1-.9-.5-1.4-.6.1-.1-.1-.4-.2-.6-.1.1-.9-.7-1.2-.6l-.3-.7c-.3-.4-.6-.7-1-.9-.3-.2-.6-.5-.9-1 .4.2.2-.3.7.3-.2-.3-.4-.7-.5-.6 0-.3-.7-.9-.7-1.4.1.1.1.1.1.3 0-.2 0-.2-.1-.4v.1c-.1-.1-.3-.1-.5-.6 0-.1.1 0 .1 0-.1 0-.3-.7-.4-.2.1-.4.1-.8 0-1.2 0-.4 0-.9-.1-1.3 0-.4.1-.9.1-1.3.1-.4.3-.7.4-.9v.2l.1-.3-.1.1c.2-.9.7-1.8 1.1-2.6 0 .1.1 0 0 .2.8-.9 0-.9.8-2 .6-.5-.2.7.1.4.6.1.8-1.5 1.5-2.2l-.1.2c.5-.6.6-1.8.6-3.1 0 0 .1.1.1 0-.2-.5-.4-1.2-.9-1.7s-1.1-.9-1.7-1.1c.4-.1.6.1.4-.2-.3-.1-.3 0-.3.1-.1.1-.2.1-.7 0-.3-.2-1.1-.3-1.2-.6h1c-.5-.4-1.4 0-1.9 0l.1-.1c-.8.1-1.1.3-1.5.5-.4.2-.7.3-1.5.5l.2.1c-.7.5-.7 0-1.5.5l-.3-.3c-.3.1-.7.3-1.2.6s-1 .5-1.5.7c.4-.4 1.5-1 2.2-1.3-.5.1-1.8.6-2 .9.2-.1.4-.3.7-.3-.6.5-1.4.9-2.4 1.3 0-.4-.7-.1-1.5.2-.8.3-1.7.7-2.1.6-1.7 1.1-3.5 1.6-5.5 2.6 1 .1-.6.3-.2.7-.4.3-.6.3-.7.3h.1-.1l-1.6.4c-.4 0 .4-.3.3-.4-1 .5-.5 0-1.3.2.2.1-.2.4-.8.7l.9-.2c-1.3 1-1.4.2-2.8 1.2l.4-.4c-.7.5-2.7 1.3-3.3 2-.2 0-.4-.1-.1-.2-1.8.7-3.8 2.1-5.4 2.4l.1-.2c-.3.1-.5.4-1 .4 0-.1.1-.2-.1-.1s-.8.5-1.3.6l.4-.3c-1.9.3-2.7 1.1-4.3 1.4-.1-.4-1.5-.3-2.3-.3v-.1c-2.2.2-3.7.6-5.7.6-1.2-.5-4.3-.6-6.2-1.3.3.1-.1.3-.5.2-.4-.2-1.3-.1-1.2-.4l.2.1c-.3-.4-1.2-.6-1.9-.9l-.3.4c-.8-.6-2.1-1-3.2-1.5-1.1-.4-2.1-.8-2.5-1.4-.5-.1-1-.4-1.5-.6l.2-.2c-.4-.3-.8-.6-1.2-1-.3-.3-.7-.6-1-1.2.1 0 .2.1.3.1-.2-.3-.4-.4-.6-.5-.2-.1-.5-.3-.5-.7.1-.1.3-.1.4-.2 0-.6.4-1.2.8-1.7s1-1 1.5-1.6c0 .1 0 .2-.1.3.5-.5 2.4-1.3 2-1.6.1.3 1.5-.7 2.3-1.2v.3c.6-.6.6-.7 1.5-1.1.2-.1.3.1-.1.2.8-.2.5-.5 1.5-.7l-.3.3c.8-.3.7-.3 1.1-.7.5-.3 1.6-.5 1.8-.3.1-.2.5-.5 1-.6.1.1-.1.2-.1.2 1.4-.3 2-.9 3-1 0 .1.1.1.2.1-1.1.3-2 .6-1.9.5.1.2 1 0 .4.5.7-.4 1.8-1.1 2.7-1.3h.1l-.1.1c.2 0 .4-.1.5-.2.3 0 .5-.1.7-.1.2.2 1-.2 1.5-.3-.1-.2.5-.4-.1-.4.1 0-.1.1-.4.1 0 0 .1 0 .1-.1h-.2l-.1.1h.1c-.1 0-.1.1-.2.1l-1.1.3c.3-.2.7-.4 1.2-.4.2-.2.4-.5.5-.6.7.2 1.9 0 2.2.2 1.3-.5 3.2-1.1 3.9-1.8.4-.2.5 0 .7 0-.2.1-.5.2-.6.3.7-.3 2.3-.8 2.3-1.2 1-.2-.4.5.9 0l-.1.2c1.4-.2 2.4-.9 3.3-1.5.5-.3 1-.7 1.5-1 .6-.3 1.2-.6 1.9-.8-.2.1-.3.1-.4.1.8-.3 1.6-.8 2.3-1.3.8-.5 1.5-1 2.2-1.6.7-.5 1.5-1.3 2.3-2l.6-.6.2-.1s.1 0 .1-.1l-.1-.1-.4-.2-1.5-.9-.4-.2c-.1 0-.2-.1-.2-.1-.1-.1-.2-.1-.4-.1-.2-.1-.4-.1-.7-.1l-.1-.3-1-.2c-1.4-.5-1.9-1.8-3.7-2.3l.1.3c-.6-.3-1.9-.9-1.7-1-.1 0-.3.1-.5-.1l.1-.1-1.5-.6c-.1 0-.1-.1-.2-.1 0-.1 0-.3.1-.4h-.2c-.2-.1.1-.1.1-.2-.1 0-.1.1-.2.1v-.1s0-.1-.1-.2c0 .1.3.1.5.1v.1c-.1-.3 0-.3.1-.4.1.2.1.3.1.4h.1v-.2l.1.2c.1-.1.1-.4.3-.3-.1-.2-.4-.5-.4-.7.1.1.2.3.2.4v-.1.2c.1 0-.1-.2 0-.2.1.2.1.1.2.2h-.1c.1 0 .2.1.3.2-.1-.1-.1-.2-.1-.2.1-.1.1.2.3.2 0-.1.1-.1 0-.3 0 0 .1.1.2.1 0-.1.2-.2 0-.4 0-.3.4-.1.5-.3l.1.1c0-.2.2-.2.1-.4 0 0 .2.1.2.2 0-.1 0-.2.2-.2 0 .2.1.1 0 .2.1 0 .3 0 .2-.2.1.2.3.1.3 0h-.2c0-.1.1-.1.1-.1l.2.2c.5 0-.2-.7.4-.6-.1-.2-.2.1-.4-.1.1-.1.5 0 .6-.1.2-.1-.3-.3-.1-.5-.1 0-.4-.1-.4-.2.1-.1.5-.1.5.1H90c0 .1.1.1.2.1h-.1c.1 0 .2-.3.3-.2-.1-.2-.2-.1-.2 0 .2-.2.1-.3.1-.6-.1 0-.2.1-.2.1.1-.4-.2-.1-.3-.3.1-.2.4-.1.2-.3 0-.2.2-.2.3-.1-.3-.2-.2-.6-.4-.7.1 0 .1 0 .2.1-.1 0-.2-.1-.3-.2 0 .1 0 .2-.1.2-.1-.1-.1-.1-.1-.2-.2.1-.1.3-.4.4 0-.2-.3 0-.3-.3.3.2 0-.3.4-.2-.1 0-.1 0-.2-.1 0 0 0-.1.1-.1-.3-.4-.3.2-.6.2.1-.2-.1-.3-.1-.3.1 0 0 .3-.1.4-.2-.1-.2.1-.3.1h.1c0 .2-.1.1-.2.2 0-.1.1-.1 0-.1-.1.3-.3-.2-.4 0-.1-.1-.1-.3-.2-.3-.1.2-.3-.1-.4.1.1.2.1.1.1.4.1-.1.1-.2.2-.2v.4c.1 0 .1-.2.2-.2 0 .2 0 .1.1.3-.2-.3-.1.2-.3.1l-.2-.5c-.3-.1-.2.4-.4.4h.1c.1.2-.1.1-.1.2-.1-.2-.2-.2-.2-.3.1.1-.2.1 0 .4l-.2-.1c-.2 0 .1.5-.1.6-.1-.2-.2-.2-.2-.4-.1 0-.1 0 0 .1-.1-.1 0 .3-.1.2 0 .1.1.2.1.3l-.1-.1c.1.1 0 .2.2.3-.5-.3-.3.3-.8.1 0 .1-.1.3-.2.4 0 0-.1-.1 0-.1-.2 0 .3.4.1.4-.3-.1-.1-.2-.2-.2-.5-.3-.1.2-.4.2-.2 0 .1.3 0 .5h-.1c.2.2.2.4.3.6-.2-.1-.1-.1-.3-.2 0 .1.4.1.4.2-.1 0-.3.1-.5 0v-.1c-.3 0 0 .2-.1.2h-.1c0 .2.3.3.3.5h.1c.1 0 .1.1.1.1-.1 0-.2-.1-.4-.1H84c0-.1 0-.2-.1-.3l-.1.3v-.2h.1c-.1-.2-.1 0-.2.1 0-.1 0-.2-.1-.2l-.1.4c0-.2.1-.3 0-.4-.1.2.1.4 0 .5-.1-.2-.1-.3-.1-.2v-.2c-.1.1-.2.1-.2.3-.1-.2-.2.1-.2-.3 0 .1-.1.3-.2.3.1-.5-.2 0-.3-.5 0 .4-.3.2-.4.5v-.1c-.1 0-.1-.1-.2-.2 0 .3-.1.5-.1.7-.2-.3 0-.4-.1-.7.1.3-.1.3 0 .5-.1-.2-.1-.1-.2-.4.1.4-.1.1-.1.4-.2-.2-.1-.4-.2-.2-.1-.1 0-.3 0-.3-.1 0 0 .3 0 .5-.1.1-.1-.2-.2-.4-.1.1-.1.4-.1.4v-.1c0 .3-.3.1-.3.5v-.1c.1.2.1.3.2.4-.1 0 0 .2-.1 0v-.2.1c-.2-.3 0-.1 0-.3-.1.1-.1.4-.3.4-.2-.3.2-.2 0-.4h.2c-.3-.4.1 0-.2-.5-.3 0-.2.3-.6.3 0 .2.2.2.2.4-.1.4-.8-.5-.8 0 .1.2.4.5.1.4l-.2-.3c-.2.1.3.4-.1.4-.1-.1 0-.2 0-.2-.4 0 .1.2 0 .3l-.3-.1c-.1.2-.1.5-.1.8-.1 0-.2-.1-.3-.1.1.4-.1.8-.1 1.1.1 0 .2.1.3.1 0 0-.1.1-.2.1 0 .2.2 0 .3 0 .1.1-.1.1-.2.1.4.2.9.4.8.7h-.1c.1.2.6-.2.5.1h-.1c.3.4.6.3.7.8.2-.3.2.3.5-.1 0 .3 0 .4.1.7.1.1.2-.3.3-.3l-.1.3.2-.2-.1.3h.1v-.2c.2-.1.2.3.2.4.1 0 .3-.1.4-.1 0 .1-.1.1-.2.2.2-.2 0 .3.2.1 0-.1 0-.2.1-.2 0 .2.2.2.4.2l-.1.2c.3.1.6 0 .9-.1-.1-.1-.1-.4 0-.5l.1.3c0-.2-.1-.1 0-.3.1 0 .1.3 0 .4l.1-.1v.2c0-.2.3.3.3-.1v.1c.3-.1.5-.2.7-.4-.1-.2 0-.2 0-.4.2 0 .5 0 .7-.2 0-.2-.1-.2-.2-.3.2.1.3-.1.4.1.2-.3.2-.4.2-.7h-.2c0-.1.1-.1.2 0-.2-.4.9-.5.5-.8l-.2-.3c.1 0 .1.1.2.1v-.1l.8.1c0 .2-.6.1 0 .5.5.1-.2-.5.5-.3.4.4.1.5.7.6 0 .1-.1.1-.3.1.5.1 1.2.6 1.6.6.3.5 1.6.8 1.4 1.1 0 0-.1 0 0 0 .2 0 1 .2 1.4.4-1 0 1.6.9 1.1 1.2.4 0 .9.2 1.5.5l.4.2c.1.1.1 0 .2.1.1 0 .2.1.4.1h-.2c.1.1.1.1 0 .1h-.1l-.2.1c.6 0 .3.3.2.7-.3.1-.3-.1-.4-.2 0-.1-.1-.2-.3-.3.2.1.1.2.1.3v.1c0 .1-.1.1-.1.1 0 .1-.1.1 0 .1-.6.2-.5.2-.9.2.2.4-.4.4-.6.9-.8.3-.4-.2-1.1.4-.4.1.2-.5.2-.5-.8.5-.2.5-.3.8-.9.7-.6.1-1 .1-.5.5-.9 1-1.4 1.2-.1 0-.2 0-.1-.1-.5.6-2 1-2.7 1.7h-.1c.2.1.3.2.3.4-.4.2-.7.5-.9.4.3-.1.2-.2.3-.3l-.4.3c-.5-.1.5-.3.4-.6-.8.4-1.7 1.1-2.3 1.2-.2-.2 1.5-.7.5-.6l1-.3c-.9-.1.6-.2-.3-.4-1.3.4-1.4.7-2.7 1.1-.2.3.2.2-.1.5-1.8 1-1.7-.2-3 .6-.3.3-.3.7-1.4.8l.2-.4c-1.3.4-.6.7-2 .9.2-.2 1-.4.8-.4-1 0-.6.4-1.3.6l-.2-.3c-1.4.5-2.9 1.1-4.4 1.6.1-.1.3-.3-.1-.3-1.9.7-4.2 1.2-6.1 1.7l-.6.5c-.2.1-.3 0-.2-.1-.8.2 0 .2-.3.4-.4.2-.6.1-.4-.1-.6.3-1.5.8-2.4 1.2-.9.4-1.8.8-2.5 1l.2-.2c-1.1.4-.9 1-2 1.4l.1-.2c-1.1.6-2.2 1.5-2.9 2.6-.8 1.1-1.2 2.5-1.1 3.7.2.2.4.9.7 1.5.3.6.8 1.1 1 .9.4.6.6.8.8 1.1.2.3.5.6 1.4 1.2.5.3.9.1 1.5.4l-.1.2h-.2l.2.1v-.1c.3.1.6.1.9.1l.3.5.6.2c-.2-.1-.4-.3-.3-.4.9.3 2.1 1.1 2 1.3.7.2 1.5.4 2.2.6-.1.1-.2 0-.4 0 .7.1-.1.3.9.4-.1-.1.1-.1.2-.2.5.3 1.7.7 2.6.8l-.2.1c1.6.4 3.5.7 5.4.9-.7-.2-.5-.5.1-.4l.2.3c.4-.2-.6-.2.2-.3.7.1.4.4 0 .4h.9c0 .1-.2.1-.2.2.4-.1 1.5.4 2 .1v.1c1.9 0 2.8-.1 4.3-.2 0-.3.6-.3 1-.5.6 0 1.2 0 1.8-.1.7 0 1.3-.1 1.9-.3.9-.3.2-.3.6-.5.1.2 1.4-.2.8.2 1.6-.4 2-.6 3.9-1.4-.2 0-.5 0-.4-.1.3-.1.8-.2.8-.1l-.1.1c2-1.1 5.2-1.4 6.6-2.6l-.1.1 1.6-1.1c.8-.3-.4.4.2.2 1.6-1.2 2.9-1.4 4.2-2.4 1.5 0 4-2.1 5.8-2.4l-.2-.1c.3-.3.5-.1.8-.3-.1-.1-.5.1-.3-.1 3.3-1.8 7.2-2.8 10.9-3.4.7-.1.8-.4 1-.6.2-.2.5-.4 1.3-.2-.1.1-.3.2-.4.3.6-.1 1.2-.1 1.6 0 .4.1.8.5.9.9.3.7-.1 2-.6 3.2 0-.2-.1-.2 0-.4-.4.4-1 1.8-.9 1.9-.2.4-.2 0-.4.2-.4.4-.6 1.4-.9 1.6-.1 0 0-.2.1-.3-.1.2-.3.6-.5.9-.2.4-.3.7-.1.5-.3.5-.6 1-.6 1.6l-.3 1.5v-.1l-.2.8c.1-.2.2-.4.2-.6.1.3 0 .8 0 1.3 0 .4 0 .8.2.9-.5 0 0 2.1.5 2.7-.2-.2.1.6-.2.4.3.8.7 1.4.9 1.2 0 .4.2.7.4 1.1.2.3.4.6.7.8.2.2.5.5.6.7.2.2.3.4.4.7 1.9 1.6 4.1 2.6 6.3 2.9-.1.2-.7.1-1.3-.1-.6-.1-1.1-.4-1.2-.2.3.1.5.2.7.2l.7.1c.5.1.9.1 1.3.1.9 0 1.7-.1 2.7-.2.5-.1-.3.3-.4.3 2.1-.5 3.9-1.2 5.3-2.4 0 0-.1.2-.3.3.3-.2.7-.4.6-.6l-.2.2c-.6.1.8-1.3.7-1.4-.1.8 1.4-1.1 1.1.1.2-.2.3-.5.2-.5.3-.2.4-.2.2.1.8-1 .4-.8 1.1-1.6.1.1-.1.3-.1.4.3-.5.5-1.1 1.1-1.8 0 .1.1 0 0 .3 1-1.3 1.3-2.5 2.4-3.8 0 .6.4-.4.8-.3l.5-.8-.4.2c.5-.7.7-1.4 1.2-1.9l-.3.6.9-1.2-.6.6c.4-.8-.4-.2.4-1-.1.2.5-.6 1-.8.2-.4.4-.8.9-1.1.2 0 .2.4.3.3.1-.5 1.3-1.3 1.5-1.8-.1.2 0 .3.1.3l.1-.4c.3-.2.4-.2.4 0 .9-.6-.5-.2.7-.7-.1.1 0 .1-.2.2 1.2-.6 2.2-1.3 3.4-1.4.4.3-1 .3-.5.5.8-.2 1.7-.4 2.5-.5.9-.1 1.8 0 2.6.3-.1-.1-.2-.1-.3-.1.4-.4 1.1.6 1.9.8-.2-.1-.4.1-.3.1.4.3.9.6 1.4 1 .5.4.9.9 1.3 1.7l-.2-.2c.2.6.4 1.7.3 2.4.1.2.1.6.3.4-.4 1.1-.6 2.1-.8 3.2-.2 1.1-.5 2.1-1.1 3 .1-.2.1-.6 0-.4-.2.6-.3 1.2-.5 1.7.2-.1.2-.2.5-.5 0 .3 0 .8-.2 1.2.1-.8-.3-.1-.5.2 0 0-.1 0-.1.1l.1-.1c.1 0 .1.1.2.1-.6.8.3.3-.2 1.4l-.1-.1v1.5c-.3.2-.1-.5-.3-.6-.1.8.4 1.5.2 2.1-.1-.3-.1-.8-.2-1.1-.3.7-.2.8-.2 1.4v-.1c0 .4 0 .9.1 1.3v-.3c.8.8.5 1.9 1.4 2.8-.8-1-.3-.1-.6-.1h-.1.1c0 .3.2.8.1.7.5.4.3 1 1.1 1.5-.1.1.4.5.1.6.5.6 0-.2.1-.3.5.4.8 1 1.4 1.6.5.6 1.1 1.2 2 1.5.5.2 1 .4 1.6.5.4.1.8.1 1.5.2.4.3-.4.2-.4.2.7.3 1.2.5 1.9.5-.2.1 0 .1.2.3.6.1.4-.3 1.1-.1-.1.1-.3.2-.6.3h-.3.4c.7 0 1.4-.2 2-.3 1.1-.1.5 0 .3.1zm-99.8-40.4s0 .1-.1.1c-.3.1-.4.1-.5.1.1 0 .6-.2.6-.2zm4.1-18.3c0 .1 0 0 0 0zm0 .4v-.1c.1 0 .2 0 .2.1-.1-.1-.2-.1-.2 0zm7.9-2v-.1c0 .1 0 .2-.1.2v-.1c0-.1.1-.2.1-.2h.1c0 .1.1.3-.1.2zm.1-.2zm2.3-2.8c0-.1.1-.1 0 0 0 0 .1 0 .1-.1.1 0 .2 0 .1.1h-.2zm-2.7 2.5l.3.1c-.3-.3.1-.4 0-.7.1 0 .1.1.1.1.2.1.1-.1 0-.2 0 0 .1.1.2.1s-.1-.3 0-.2c0 0 0 .1.1.1-.1-.1.1-.1-.1-.2.1 0 0-.2.2-.2-.2-.2.2 0 0-.3.3.3.3.1.3-.1l.2.2s.1-.1-.1-.3c.4.3 0-.5.4 0 .1-.3.2-.5.3-.7.2.4-.2.1 0 .5.1-.2.1-.6.3-.6.1 0 0 .2.1.2.1-.2.3 0 .3-.3v-.1c0-.2.1-.5.1-.6-.1.4.1.3 0 .6h.1s.2.1.1.2l-.1-.1v.1h.1c.2.1.4.1.3.2 0 0 0 .1-.2.1.1.1.2.2.1.2s-.3-.2-.4-.2c.2.2 0 .2.2.4l-.2-.2.2.2c-.1 0-.1 0-.2-.1-.1.1.4.2.1.2l-.1-.1c-.2 0-.1.3-.3.3-.3-.2 0-.1-.2-.3-.1.2 0 .6-.2.6h.1c.3.4-.3-.1-.2.2 0-.1-.1-.1-.1-.2-.2 0-.1.3-.2.5v-.1c-.1 0-.2.1-.3.1 0 .1 0 .1.1.3-.6-.5-.3.6-.8.2v-.1l-.1.2c.1.2.1.1.2.2v.3c0-.2-.1-.3-.2-.4v.1c-.3-.1-.8-.2-.5-.2zm-1.8.5v.1l-.2-.1v-.2l.2.2zm.2 1.8c-.2 0-.1-.1-.2-.1-.1.1-.2 0-.4 0 .2 0 .3.1.2.1h.3c.2.2-.5 0-.2.2l-.2-.1c.1.1-.1.3.3.5-.1 0-.2 0-.2-.1-.1.2.3.6 0 .6l-.1-.1.1.1-.1-.1s.2.2.1.2l-.1-.1c-.2 0 .2.3.2.5-.2-.3-.4-.4-.4-.4-.1 0 0 .4-.2.6-.2-.4-.4-.1-.5-.4 0 .1 0 .3-.1.3 0-.1-.2.3-.1-.1 0-.4-.1-.3-.1-.3l-.1.5c0-.7-.6.1-.5-.5l-.2.2.1-.2c-.1-.1-.1-.2-.3-.2l.1-.1c-.1-.1-.5.6-.6.5l.2-.3c-.1-.1-.1-.5-.4-.3l.1-.1s.2-.2-.3.1c.3-.2 0-.1-.2 0l.2-.1c-.3.1-.4.2-.6.1 0 0 .1 0 .1-.1 0 0-.3.1-.2 0H80c-.1 0 0-.1.3-.1-.2 0-.4 0-.4-.1h.2c.2-.1-.4-.2-.1-.2h.2v.1h.7c-.3 0-.6-.2-.5-.2h.3l.2.1h.1c-.3-.1-.2-.1-.5-.2h-.1.1v.1c-.2-.1-.3-.1-.1-.1-.2-.1-.3-.2-.5-.2.5.1.7.2 1 .4-.1-.1 0-.1-.3-.5 0-.1.1.1.2.2v.1c0-.1.1-.1-.1-.4.2.1.1.3.2.2v.1c.3.5.1-.9.6-.4 0 0-.1 0-.1-.1.4.2.7-.5 1.2-.1.1.1.1-.1.2-.3l.1.3.1-.3c.1-.2.3.6.5.2v-.2h.1s0 .1.1 0v-.1.1l.1.1c.1.1.2.3.5.4l.8.2c-.1 0-.4-.2-.5-.1.2 0 .3.2.5.1H85l-.1-.1s.1 0 .1.1c-.5 0-.6 0-.6.1zm-12.2 17l-.5.2.5-.2zm-1.6.4c.1.1 0 .2-.1.2.1-.1-.4 0-.7 0 .3 0 .5-.1.8-.2z" data-color="2" class="icon2"></path><path d="M137.9 153.8c-.3.2-.1.1.1-.1l-.1.1z" data-color="2" class="icon2"></path><path d="M148.3 140.9c.2-.2.4-.4.3-.5-.1.2-.2.3-.3.5z" data-color="2" class="icon2"></path><path d="M121.1 148.1v.1-.1z" data-color="2" class="icon2"></path><path d="M148.3 140.9c-.2.2-.4.4-.5.6.3-.2.4-.4.5-.6z" data-color="2" class="icon2"></path><path d="M175.9 166.4h-.2.2z" data-color="2" class="icon2"></path><path d="M176.1 166.3c-.1 0-.2 0-.2.1.1 0 .1 0 .2-.1z" data-color="2" class="icon2"></path><path d="M176.5 166.2l-.4.1c.1 0 .3 0 .4-.1z" data-color="2" class="icon2"></path><path d="M170 166c-.3-.1-.5-.3-.7-.3.3.1.8.5 1.3.6l.1-.1c-.1 0-.4-.1-.7-.2z" data-color="2" class="icon2"></path><path d="M166.1 162c-.7-1.3 0 .4-.9-.8.2.3.5.6.7.9-.1-.1-.2-.4.2-.1z" data-color="2" class="icon2"></path><path d="M163.6 158.1c.3.6.1-.1.2 0-.3-.4-.3-.5-.2 0z" data-color="2" class="icon2"></path><path d="M159.2 134.7l.1-.2c-.5 0 0 .1-.1.2z" data-color="2" class="icon2"></path><path d="M154.8 136.4l.1-.3-.6.3h.5z" data-color="2" class="icon2"></path><path d="M151 136.3c-.2.2-.4.4-.7.6l.5-.4.2-.2z" data-color="2" class="icon2"></path><path d="M122.6 142.8l-.3.1c.1.3.4.4.3-.1z" data-color="2" class="icon2"></path><path d="M117.8 130.2c.4-.1.9-.1 1.1-.2-.3-.1-.8-.1-1.1.2z" data-color="2" class="icon2"></path><path d="M64.3 142.2h.4l-.7-.2.3.2z" data-color="2" class="icon2"></path><path d="M90.3 103s.1 0 0 0z" data-color="2" class="icon2"></path><path d="M88 106c-.1-.1-.1 0-.1 0h.1z" data-color="2" class="icon2"></path><path d="M86.9 106.9v-.1.1z" data-color="2" class="icon2"></path><path d="M89.3 101.3c.1 0 .1 0 0 0z" data-color="2" class="icon2"></path><path d="M86 102.9s0-.1 0 0c0-.1 0-.1 0 0z" data-color="2" class="icon2"></path><path d="M80.4 106.2c-.1-.2 0-.3-.1-.2 0 .1.1.2.1.2z" data-color="2" class="icon2"></path><path d="M87 104.7s-.1-.1-.2-.1v.1h.2z" data-color="2" class="icon2"></path><path d="M88.6 103.3s0 .1 0 0c0 .1 0 0 0 0z" data-color="2" class="icon2"></path><path d="M80.2 108.7c0 .1 0 .1 0 0 0 .1 0 0 0 0z" data-color="2" class="icon2"></path><path d="M87.9 105.9s-.1 0 0 0z" data-color="2" class="icon2"></path><path d="M88.6 103.4c0 .1 0 .1 0 0z" data-color="2" class="icon2"></path><path d="M89 103.7c-.1-.1-.1-.1 0 0-.2-.1-.2-.1 0 0z" data-color="2" class="icon2"></path><path d="M88.9 103.5c-.1 0-.1.1 0 0 0 .1 0 .1 0 0z" data-color="2" class="icon2"></path><path d="M89 105.6c0-.1-.1-.1-.2-.2l.2.2z" data-color="2" class="icon2"></path><path d="M88.4 104.1l-.1-.1.1.2v-.1z" data-color="2" class="icon2"></path><path d="M89.9 104.7v.1-.1z" data-color="2" class="icon2"></path><path d="M85.3 103.2l.2.2c0-.1-.2-.3-.2-.2z" data-color="2" class="icon2"></path><path d="M20.1 98.9l4.5-32.7 4.5-32.7 28.1 37.7 28.1 37.7-32.6-5-32.6-5z" data-color="3" class="icon3"></path></g></g>
</svg>
</g><g opacity="1" transform="rotate(0 257.2862 462.4)">
<svg width="353.4799" height="28" x="257.2862" y="462.4" version="1.1" preserveAspectRatio="none" viewBox="2.08 -29.68 377.72 29.92">
  <g transform="matrix(1 0 0 1 0 0)" class="text"><path id="id-6izo4zJp14" d="M16.72 0.24Q12.56 0.24 9.22-1.60Q5.88-3.44 3.98-6.70Q2.08-9.96 2.08-14L2.08-14Q2.08-18.04 3.98-21.30Q5.88-24.56 9.24-26.40Q12.60-28.24 16.76-28.24L16.76-28.24Q19.88-28.24 22.52-27.20Q25.16-26.16 27-24.16L27-24.16L25.12-22.28Q21.84-25.60 16.84-25.60L16.84-25.60Q13.52-25.60 10.80-24.08Q8.08-22.56 6.54-19.92Q5-17.28 5-14L5-14Q5-10.72 6.54-8.08Q8.08-5.44 10.80-3.92Q13.52-2.40 16.84-2.40L16.84-2.40Q21.88-2.40 25.12-5.76L25.12-5.76L27-3.88Q25.16-1.88 22.50-0.82Q19.84 0.24 16.72 0.24L16.72 0.24Z M44.40 0.20Q41.36 0.20 38.92-1.18Q36.48-2.56 35.08-5Q33.68-7.44 33.68-10.52L33.68-10.52Q33.68-13.60 35.08-16.04Q36.48-18.48 38.92-19.84Q41.36-21.20 44.40-21.20L44.40-21.20Q47.44-21.20 49.88-19.84Q52.32-18.48 53.70-16.04Q55.08-13.60 55.08-10.52L55.08-10.52Q55.08-7.44 53.70-5Q52.32-2.56 49.88-1.18Q47.44 0.20 44.40 0.20L44.40 0.20ZM44.40-2.32Q46.64-2.32 48.42-3.34Q50.20-4.36 51.20-6.24Q52.20-8.12 52.20-10.52L52.20-10.52Q52.20-12.92 51.20-14.80Q50.20-16.68 48.42-17.70Q46.64-18.72 44.40-18.72L44.40-18.72Q42.16-18.72 40.38-17.70Q38.60-16.68 37.58-14.80Q36.56-12.92 36.56-10.52L36.56-10.52Q36.56-8.12 37.58-6.24Q38.60-4.36 40.38-3.34Q42.16-2.32 44.40-2.32L44.40-2.32Z M91.12-21.20Q95.08-21.20 97.34-18.92Q99.60-16.64 99.60-12.20L99.60-12.20L99.60 0L96.76 0L96.76-11.92Q96.76-15.20 95.18-16.92Q93.60-18.64 90.72-18.64L90.72-18.64Q87.44-18.64 85.56-16.62Q83.68-14.60 83.68-11.04L83.68-11.04L83.68 0L80.84 0L80.84-11.92Q80.84-15.20 79.26-16.92Q77.68-18.64 74.76-18.64L74.76-18.64Q71.52-18.64 69.62-16.62Q67.72-14.60 67.72-11.04L67.72-11.04L67.72 0L64.88 0L64.88-21.04L67.60-21.04L67.60-17.20Q68.72-19.12 70.72-20.16Q72.72-21.20 75.32-21.20L75.32-21.20Q77.96-21.20 79.90-20.08Q81.84-18.96 82.80-16.76L82.80-16.76Q83.96-18.84 86.14-20.02Q88.32-21.20 91.12-21.20L91.12-21.20Z M111.32 0L111.32-21.04L114.16-21.04L114.16 0L111.32 0ZM112.76-25.64Q111.88-25.64 111.28-26.24Q110.68-26.84 110.68-27.68L110.68-27.68Q110.68-28.48 111.28-29.08Q111.88-29.68 112.76-29.68L112.76-29.68Q113.64-29.68 114.24-29.10Q114.84-28.52 114.84-27.72L114.84-27.72Q114.84-26.84 114.24-26.24Q113.64-25.64 112.76-25.64L112.76-25.64Z M134.80 0.20Q131.68 0.20 129.22-1.16Q126.76-2.52 125.36-4.98Q123.96-7.44 123.96-10.52L123.96-10.52Q123.96-13.60 125.36-16.04Q126.76-18.48 129.22-19.84Q131.68-21.20 134.80-21.20L134.80-21.20Q137.52-21.20 139.66-20.14Q141.80-19.08 143.04-17.04L143.04-17.04L140.92-15.60Q139.88-17.16 138.28-17.94Q136.68-18.72 134.80-18.72L134.80-18.72Q132.52-18.72 130.70-17.70Q128.88-16.68 127.86-14.80Q126.84-12.92 126.84-10.52L126.84-10.52Q126.84-8.08 127.86-6.22Q128.88-4.36 130.70-3.34Q132.52-2.32 134.80-2.32L134.80-2.32Q136.68-2.32 138.28-3.08Q139.88-3.84 140.92-5.40L140.92-5.40L143.04-3.96Q141.80-1.92 139.64-0.86Q137.48 0.20 134.80 0.20L134.80 0.20Z M158.24 0.20Q155.68 0.20 153.34-0.54Q151.00-1.28 149.68-2.40L149.68-2.40L150.96-4.64Q152.28-3.60 154.28-2.94Q156.28-2.28 158.44-2.28L158.44-2.28Q161.32-2.28 162.70-3.18Q164.08-4.08 164.08-5.72L164.08-5.72Q164.08-6.88 163.32-7.54Q162.56-8.20 161.40-8.54Q160.24-8.88 158.32-9.20L158.32-9.20Q155.76-9.68 154.20-10.18Q152.64-10.68 151.54-11.88Q150.44-13.08 150.44-15.20L150.44-15.20Q150.44-17.84 152.64-19.52Q154.84-21.20 158.76-21.20L158.76-21.20Q160.80-21.20 162.84-20.66Q164.88-20.12 166.20-19.24L166.20-19.24L164.96-16.96Q162.36-18.76 158.76-18.76L158.76-18.76Q156.04-18.76 154.66-17.80Q153.28-16.84 153.28-15.28L153.28-15.28Q153.28-14.08 154.06-13.36Q154.84-12.64 156.00-12.30Q157.16-11.96 159.20-11.60L159.20-11.60Q161.72-11.12 163.24-10.64Q164.76-10.16 165.84-9Q166.92-7.84 166.92-5.80L166.92-5.80Q166.92-3.04 164.62-1.42Q162.32 0.20 158.24 0.20L158.24 0.20Z M203.40 0.24Q199.24 0.24 195.90-1.60Q192.56-3.44 190.66-6.70Q188.76-9.96 188.76-14L188.76-14Q188.76-18.04 190.66-21.30Q192.56-24.56 195.92-26.40Q199.28-28.24 203.44-28.24L203.44-28.24Q206.56-28.24 209.20-27.20Q211.84-26.16 213.68-24.16L213.68-24.16L211.80-22.28Q208.52-25.60 203.52-25.60L203.52-25.60Q200.20-25.60 197.48-24.08Q194.76-22.56 193.22-19.92Q191.68-17.28 191.68-14L191.68-14Q191.68-10.72 193.22-8.08Q194.76-5.44 197.48-3.92Q200.20-2.40 203.52-2.40L203.52-2.40Q208.56-2.40 211.80-5.76L211.80-5.76L213.68-3.88Q211.84-1.88 209.18-0.82Q206.52 0.24 203.40 0.24L203.40 0.24Z M231.08 0.20Q228.04 0.20 225.60-1.18Q223.16-2.56 221.76-5Q220.36-7.44 220.36-10.52L220.36-10.52Q220.36-13.60 221.76-16.04Q223.16-18.48 225.60-19.84Q228.04-21.20 231.08-21.20L231.08-21.20Q234.12-21.20 236.56-19.84Q239-18.48 240.38-16.04Q241.76-13.60 241.76-10.52L241.76-10.52Q241.76-7.44 240.38-5Q239-2.56 236.56-1.18Q234.12 0.20 231.08 0.20L231.08 0.20ZM231.08-2.32Q233.32-2.32 235.10-3.34Q236.88-4.36 237.88-6.24Q238.88-8.12 238.88-10.52L238.88-10.52Q238.88-12.92 237.88-14.80Q236.88-16.68 235.10-17.70Q233.32-18.72 231.08-18.72L231.08-18.72Q228.84-18.72 227.06-17.70Q225.28-16.68 224.26-14.80Q223.24-12.92 223.24-10.52L223.24-10.52Q223.24-8.12 224.26-6.24Q225.28-4.36 227.06-3.34Q228.84-2.32 231.08-2.32L231.08-2.32Z M262.28-21.20Q266.24-21.20 268.58-18.90Q270.92-16.60 270.92-12.20L270.92-12.20L270.92 0L268.08 0L268.08-11.92Q268.08-15.20 266.44-16.92Q264.80-18.64 261.76-18.64L261.76-18.64Q258.36-18.64 256.38-16.62Q254.40-14.60 254.40-11.04L254.40-11.04L254.40 0L251.56 0L251.56-21.04L254.28-21.04L254.28-17.16Q255.44-19.08 257.50-20.14Q259.56-21.20 262.28-21.20L262.28-21.20Z M293.36-21.20Q297.32-21.20 299.66-18.90Q302-16.60 302-12.20L302-12.20L302 0L299.16 0L299.16-11.92Q299.16-15.20 297.52-16.92Q295.88-18.64 292.84-18.64L292.84-18.64Q289.44-18.64 287.46-16.62Q285.48-14.60 285.48-11.04L285.48-11.04L285.48 0L282.64 0L282.64-21.04L285.36-21.04L285.36-17.16Q286.52-19.08 288.58-20.14Q290.64-21.20 293.36-21.20L293.36-21.20Z M332.16-10.52L332.12-9.64L314.52-9.64Q314.76-6.36 317.04-4.34Q319.32-2.32 322.80-2.32L322.80-2.32Q324.76-2.32 326.40-3.02Q328.04-3.72 329.24-5.08L329.24-5.08L330.84-3.24Q329.44-1.56 327.34-0.68Q325.24 0.20 322.72 0.20L322.72 0.20Q319.48 0.20 316.98-1.18Q314.48-2.56 313.08-5Q311.68-7.44 311.68-10.52L311.68-10.52Q311.68-13.60 313.02-16.04Q314.36-18.48 316.70-19.84Q319.04-21.20 321.96-21.20L321.96-21.20Q324.88-21.20 327.20-19.84Q329.52-18.48 330.84-16.06Q332.16-13.64 332.16-10.52L332.16-10.52ZM321.96-18.76Q318.92-18.76 316.86-16.82Q314.80-14.88 314.52-11.76L314.52-11.76L329.44-11.76Q329.16-14.88 327.10-16.82Q325.04-18.76 321.96-18.76L321.96-18.76Z M350.68 0.20Q347.56 0.20 345.10-1.16Q342.64-2.52 341.24-4.98Q339.84-7.44 339.84-10.52L339.84-10.52Q339.84-13.60 341.24-16.04Q342.64-18.48 345.10-19.84Q347.56-21.20 350.68-21.20L350.68-21.20Q353.40-21.20 355.54-20.14Q357.68-19.08 358.92-17.04L358.92-17.04L356.80-15.60Q355.76-17.16 354.16-17.94Q352.56-18.72 350.68-18.72L350.68-18.72Q348.40-18.72 346.58-17.70Q344.76-16.68 343.74-14.80Q342.72-12.92 342.72-10.52L342.72-10.52Q342.72-8.08 343.74-6.22Q344.76-4.36 346.58-3.34Q348.40-2.32 350.68-2.32L350.68-2.32Q352.56-2.32 354.16-3.08Q355.76-3.84 356.80-5.40L356.80-5.40L358.92-3.96Q357.68-1.92 355.52-0.86Q353.36 0.20 350.68 0.20L350.68 0.20Z M378.80-3.32L379.80-1.28Q379-0.56 377.82-0.18Q376.64 0.20 375.36 0.20L375.36 0.20Q372.40 0.20 370.80-1.40Q369.20-3 369.20-5.92L369.20-5.92L369.20-18.64L365.44-18.64L365.44-21.04L369.20-21.04L369.20-25.64L372.04-25.64L372.04-21.04L378.44-21.04L378.44-18.64L372.04-18.64L372.04-6.08Q372.04-4.20 372.98-3.22Q373.92-2.24 375.68-2.24L375.68-2.24Q376.56-2.24 377.38-2.52Q378.20-2.80 378.80-3.32L378.80-3.32Z"/></g>
</svg>
</g><g opacity="1" transform="rotate(0 257.2862 372.4)">
<svg width="373.2475" height="70" x="257.2862" y="372.4" version="1.1" preserveAspectRatio="none" viewBox="2.4 -31.64 170.84 32.04">
  <g transform="matrix(1 0 0 1 0 0)" class="companyName"><path id="id-D6z1nYkh6" d="M18.04-31.64Q23.64-31.64 27.92-28.08L27.92-28.08Q28.28-27.80 28.28-27.28L28.28-27.28Q28.28-26.80 27.96-26.42Q27.64-26.04 27.08-26.04L27.08-26.04Q26.64-26.04 26.08-26.52L26.08-26.52Q23.04-29.24 18.04-29.24L18.04-29.24Q14.52-29.24 11.46-27.36Q8.40-25.48 6.60-22.34Q4.80-19.20 4.80-15.64L4.80-15.64Q4.80-11.96 6.58-8.82Q8.36-5.68 11.42-3.84Q14.48-2 18.04-2L18.04-2Q22.76-2 26.32-4.92L26.32-4.92Q26.60-5.12 26.92-5.12L26.92-5.12Q27.40-5.12 27.78-4.76Q28.16-4.40 28.16-3.88L28.16-3.88Q28.16-3.36 27.88-3.04L27.88-3.04Q24.44 0.40 18.04 0.40L18.04 0.40Q13.84 0.40 10.24-1.78Q6.64-3.96 4.52-7.66Q2.40-11.36 2.40-15.64L2.40-15.64Q2.40-19.92 4.50-23.60Q6.60-27.28 10.18-29.46Q13.76-31.64 18.04-31.64L18.04-31.64Z M49.12-31.64Q53.60-31.64 57.26-29.54Q60.92-27.44 63.02-23.78Q65.12-20.12 65.12-15.64L65.12-15.64Q65.12-11.12 63.02-7.46Q60.92-3.80 57.26-1.70Q53.60 0.40 49.12 0.40L49.12 0.40Q44.60 0.40 40.94-1.70Q37.28-3.80 35.18-7.46Q33.08-11.12 33.08-15.64L33.08-15.64Q33.08-20.12 35.18-23.78Q37.28-27.44 40.94-29.54Q44.60-31.64 49.12-31.64L49.12-31.64ZM49.12-29.24Q45.28-29.24 42.16-27.46Q39.04-25.68 37.26-22.56Q35.48-19.44 35.48-15.64L35.48-15.64Q35.48-11.80 37.26-8.68Q39.04-5.56 42.16-3.78Q45.28-2 49.12-2L49.12-2Q52.92-2 56.04-3.78Q59.16-5.56 60.94-8.68Q62.72-11.80 62.72-15.64L62.72-15.64Q62.72-19.44 60.94-22.56Q59.16-25.68 56.04-27.46Q52.92-29.24 49.12-29.24L49.12-29.24Z M101.60-31.24Q102.12-31.24 102.44-30.90Q102.76-30.56 102.76-30.04L102.76-30.04L102.76-1.20Q102.76-0.68 102.44-0.34Q102.12 0 101.60 0L101.60 0Q101.08 0 100.72-0.34Q100.36-0.68 100.36-1.20L100.36-1.20L100.36-25.72L88.20-0.96Q87.92-0.40 87.16-0.40L87.16-0.40Q86.44-0.40 86.04-1.16L86.04-1.16L73.92-25.36L73.92-1.20Q73.92-0.68 73.58-0.34Q73.24 0 72.72 0L72.72 0Q72.20 0 71.86-0.34Q71.52-0.68 71.52-1.20L71.52-1.20L71.52-30.04Q71.52-30.56 71.86-30.90Q72.20-31.24 72.72-31.24L72.72-31.24Q73.52-31.24 73.80-30.64L73.80-30.64L87.24-4.08L100.52-30.64Q100.88-31.24 101.60-31.24L101.60-31.24Z M110.76-30.04Q110.76-30.56 111.10-30.90Q111.44-31.24 111.96-31.24L111.96-31.24Q112.48-31.24 112.82-30.90Q113.16-30.56 113.16-30.04L113.16-30.04L113.16-1.20Q113.16-0.68 112.82-0.34Q112.48 0 111.96 0L111.96 0Q111.44 0 111.10-0.34Q110.76-0.68 110.76-1.20L110.76-1.20L110.76-30.04Z M135.20-31.64Q140.80-31.64 145.08-28.08L145.08-28.08Q145.44-27.80 145.44-27.28L145.44-27.28Q145.44-26.80 145.12-26.42Q144.80-26.04 144.24-26.04L144.24-26.04Q143.80-26.04 143.24-26.52L143.24-26.52Q140.20-29.24 135.20-29.24L135.20-29.24Q131.68-29.24 128.62-27.36Q125.56-25.48 123.76-22.34Q121.96-19.20 121.96-15.64L121.96-15.64Q121.96-11.96 123.74-8.82Q125.52-5.68 128.58-3.84Q131.64-2 135.20-2L135.20-2Q139.92-2 143.48-4.92L143.48-4.92Q143.76-5.12 144.08-5.12L144.08-5.12Q144.56-5.12 144.94-4.76Q145.32-4.40 145.32-3.88L145.32-3.88Q145.32-3.36 145.04-3.04L145.04-3.04Q141.60 0.40 135.20 0.40L135.20 0.40Q131.00 0.40 127.40-1.78Q123.80-3.96 121.68-7.66Q119.56-11.36 119.56-15.64L119.56-15.64Q119.56-19.92 121.66-23.60Q123.76-27.28 127.34-29.46Q130.92-31.64 135.20-31.64L135.20-31.64Z M172.16-31.24Q172.64-31.24 172.94-30.94Q173.24-30.64 173.24-30.16L173.24-30.16Q173.24-29.68 172.94-29.38Q172.64-29.08 172.16-29.08L172.16-29.08L162.04-29.08L162.04-1.20Q162.04-0.68 161.70-0.34Q161.36 0 160.84 0L160.84 0Q160.32 0 159.98-0.34Q159.64-0.68 159.64-1.20L159.64-1.20L159.64-29.08L149.52-29.08Q149.04-29.08 148.74-29.38Q148.44-29.68 148.44-30.16L148.44-30.16Q148.44-30.64 148.74-30.94Q149.04-31.24 149.52-31.24L149.52-31.24L172.16-31.24Z"/></g>
</svg>
</g></svg></svg>